<?xml version="1.0" standalone="no"?>
<!DOCTYPE svg PUBLIC "-//W3C//DTD SVG 20010904//EN"
 "http://www.w3.org/TR/2001/REC-SVG-20010904/DTD/svg10.dtd">
<svg version="1.0" xmlns="http://www.w3.org/2000/svg"
 width="1220.000000pt" height="1220.000000pt" viewBox="0 0 1220.000000 1220.000000"
 preserveAspectRatio="xMidYMid meet">
<metadata>
Created by potrace 1.11, written by Peter Selinger 2001-2013
</metadata>
<g transform="translate(0.000000,1220.000000) scale(0.100000,-0.100000)"
fill="#000000" stroke="none">
<path d="M6067 11318 c-46 -84 -338 -591 -358 -620 -11 -15 -19 -29 -19 -32 0
-2 -48 -86 -106 -187 -59 -101 -116 -200 -127 -219 -10 -19 -129 -224 -262
-455 -134 -231 -252 -436 -263 -455 -19 -35 -413 -716 -448 -777 -35 -58 -149
-257 -177 -308 -16 -27 -39 -67 -53 -87 -13 -21 -24 -40 -24 -42 0 -3 -21 -40
-46 -83 -26 -43 -58 -98 -72 -123 -21 -38 -366 -636 -557 -965 -32 -55 -67
-116 -78 -135 -10 -19 -92 -161 -181 -315 -90 -154 -225 -388 -300 -520 -76
-132 -149 -257 -162 -277 -13 -21 -24 -40 -24 -42 0 -2 -27 -50 -60 -106 -33
-56 -60 -103 -60 -105 0 -2 -17 -32 -38 -66 -22 -35 -50 -84 -64 -109 -14 -25
-110 -191 -213 -370 -104 -179 -196 -338 -205 -355 -10 -16 -50 -86 -90 -155
-40 -69 -80 -139 -90 -156 -37 -65 -176 -305 -245 -424 -81 -139 -108 -186
-141 -245 -12 -22 -61 -107 -109 -190 -76 -131 -508 -878 -555 -960 -9 -16
-31 -54 -49 -83 -17 -29 -31 -57 -31 -62 0 -6 -4 -10 -10 -10 -5 0 -10 -5 -10
-11 0 -6 -22 -48 -48 -93 -42 -69 -278 -478 -340 -586 -10 -19 -112 -195 -225
-391 -114 -196 -209 -363 -213 -372 -6 -16 419 -17 6091 -17 4877 0 6095 3
6088 13 -6 6 -23 35 -38 62 -22 41 -309 538 -383 665 -11 19 -29 51 -40 70
-11 19 -102 177 -202 350 -226 390 -217 374 -253 440 -16 30 -36 62 -43 71 -8
8 -14 18 -14 21 0 2 -48 87 -106 189 -59 101 -115 200 -126 219 -11 19 -53 91
-93 160 -64 111 -125 216 -406 704 -38 66 -69 121 -69 123 0 2 -8 16 -19 31
-10 15 -81 135 -157 267 -75 132 -195 339 -265 460 -70 121 -136 236 -147 255
-53 95 -218 379 -239 412 -12 21 -23 39 -23 42 0 2 -30 55 -67 117 -78 135
-126 218 -161 279 -14 25 -45 78 -69 118 -24 41 -43 76 -43 79 0 2 -14 24 -30
48 -16 24 -30 46 -30 49 0 4 -18 36 -40 72 -22 36 -40 67 -40 69 0 1 -46 81
-102 176 -55 96 -110 190 -120 209 -10 19 -27 49 -37 65 -10 17 -29 50 -43 75
-31 56 -85 150 -98 170 -11 19 -102 176 -353 610 -291 504 -422 730 -445 770
-12 19 -27 46 -35 60 -18 34 -277 483 -346 600 -30 52 -61 104 -67 115 -18 33
-46 81 -184 320 -73 127 -143 249 -156 272 -13 23 -54 93 -90 155 -37 62 -78
133 -92 158 -26 46 -57 101 -245 425 -60 105 -152 264 -204 355 -53 91 -99
170 -103 175 -4 6 -25 42 -45 80 -21 39 -50 88 -64 110 -13 22 -36 61 -50 86
-14 25 -44 78 -66 117 -22 40 -42 72 -45 72 -3 0 -18 -23 -33 -52z"/>
</g>
</svg>
